<?xml version="1.0" encoding="UTF-8" standalone="no"?>
<!DOCTYPE svg PUBLIC "-//W3C//DTD SVG 1.1//EN" "http://www.w3.org/Graphics/SVG/1.1/DTD/svg11.dtd">
<svg width="100%" height="100%" viewBox="0 0 1184 1538" version="1.1" xmlns="http://www.w3.org/2000/svg" xmlns:xlink="http://www.w3.org/1999/xlink" xml:space="preserve" xmlns:serif="http://www.serif.com/" style="fill-rule:evenodd;clip-rule:evenodd;stroke-linejoin:round;stroke-miterlimit:1.41421;">
    <g transform="matrix(4.16667,0,0,4.16667,0,0)">
        <path d="M283.398,0.496C283.398,0.496 283.465,212.184 283.465,227.268C283.465,322.518 207.703,369 141.732,369C84.142,369 0,328.351 0,227.268C0,216.518 0.103,0.496 0.103,0.496L283.398,0.496Z" style="fill:rgb(35,31,32);"/>
        <rect x="2.834" y="3.331" width="93.543" height="124.724" style="fill:rgb(183,32,37);"/>
        <rect x="187.086" y="3.331" width="93.544" height="124.724" style="fill:rgb(183,32,37);"/>
        <path d="M280.63,220.181C280.639,236.035 280.63,241.366 280.63,227.656C280.63,232.376 280.357,237.14 279.761,241.868C272.247,301.481 237.885,341.334 187.206,358.666C187.086,337.114 187.086,220.181 187.086,220.181C187.086,220.181 257.65,220.121 280.63,220.181Z" style="fill:rgb(183,32,37);"/>
        <path d="M96.381,220.181C96.381,220.181 96.381,337.114 96.262,358.666C45.584,341.334 11.221,301.481 3.707,241.868C3.111,237.14 2.838,232.376 2.838,227.656C2.838,241.366 2.83,236.035 2.838,220.181C25.817,220.121 96.381,220.181 96.381,220.181Z" style="fill:rgb(183,32,37);"/>
        <path d="M185.67,3.331L185.67,129.473L280.63,129.473L280.63,218.764L185.67,218.764L185.67,359.079C185.67,359.079 165.322,366.165 141.732,366.165C118.143,366.165 97.795,359.079 97.795,359.079L97.795,218.764L2.834,218.764L2.834,129.473L97.795,129.473L97.795,3.331L185.67,3.331Z" style="fill:white;"/>
        <path d="M283.398,0.496L0.103,0.496C0.103,0.496 0,216.518 0,227.268C0,328.351 84.142,369 141.732,369C207.703,369 283.465,322.518 283.465,227.268C283.465,212.184 283.398,0.496 283.398,0.496ZM279.399,4.496C279.409,33.768 279.465,213.505 279.465,227.268C279.465,280.858 255.133,313.163 234.72,330.829C209.625,352.545 175.732,365 141.732,365C110.281,365 76.654,353.011 51.782,332.928C29.984,315.328 4,282.708 4,227.268C4,217.452 4.086,34.078 4.101,4.496L279.399,4.496Z" style="fill:rgb(35,31,32);fill-rule:nonzero;"/>
    </g>
</svg>